<?xml version="1.0" encoding="UTF-8" standalone="no"?>
<svg width="30px" height="30px" viewBox="0 0 30 30" version="1.1" xmlns="http://www.w3.org/2000/svg" xmlns:xlink="http://www.w3.org/1999/xlink">
    <!-- Generator: Sketch 41.2 (35397) - http://www.bohemiancoding.com/sketch -->
    <title>github</title>
    <desc>Created with Sketch.</desc>
    <defs></defs>
    <g id="Symbols" stroke="none" stroke-width="1" fill="none" fill-rule="evenodd">
        <g id="sections/footer" transform="translate(-1128.000000, -72.000000)">
            <g id="footer">
                <g id="github" transform="translate(1128.000000, 72.000000)">
                    <rect id="Rectangle" x="0" y="0" width="30" height="30"></rect>
                    <circle id="Oval" fill="#FFFDF5" cx="15" cy="15" r="15"></circle>
                    <path d="M6.81818182,15.2075685 C6.81818182,18.9135247 9.16230198,22.0581285 12.4135319,23.1674434 C12.8228865,23.2446937 12.9720623,22.9856476 12.9720623,22.7631666 C12.9720623,22.5638607 12.9650305,22.0364984 12.9610123,21.3366103 C10.6852016,21.8433726 10.2050261,20.2118454 10.2050261,20.2118454 C9.83283989,19.2426112 9.29640957,18.984595 9.29640957,18.984595 C8.55354397,18.4639278 9.35266443,18.4747428 9.35266443,18.4747428 C10.173885,18.5339681 10.605842,19.3394316 10.605842,19.3394316 C11.3361507,20.6212722 12.5210188,20.2509856 12.9871306,20.0362297 C13.0614674,19.4939323 13.2729254,19.1246757 13.5064835,18.9145547 C11.6897527,18.7028888 9.77959868,17.9834307 9.77959868,14.7687866 C9.77959868,13.8525976 10.0985437,13.1037843 10.6219148,12.5171968 C10.5380348,12.3050158 10.2572628,11.4521721 10.7022789,10.297537 C10.7022789,10.297537 11.3893919,10.0714511 12.9519713,11.1570758 C13.6049296,10.97116 14.3045994,10.8779446 15.0002511,10.8748546 C15.6954006,10.8779446 16.3950704,10.97116 17.0490333,11.1570758 C18.6106081,10.0714511 19.2967165,10.297537 19.2967165,10.297537 C19.7427372,11.4521721 19.4619652,12.3050158 19.3780852,12.5171968 C19.9024609,13.1037843 20.2188945,13.8525976 20.2188945,14.7687866 C20.2188945,17.9911557 18.3062291,18.7003138 16.4834709,18.9083747 C16.7773022,19.1674208 17.0384855,19.6793331 17.0384855,20.4616215 C17.0384855,21.5832964 17.0289422,22.4881554 17.0289422,22.7631666 C17.0289422,22.9877076 17.176109,23.2482987 17.5914909,23.1664133 C20.8397071,22.0550385 23.1818182,18.9130097 23.1818182,15.2075685 C23.1818182,10.5740933 19.51822,6.81818182 14.9992466,6.81818182 C10.48178,6.81818182 6.81818182,10.5740933 6.81818182,15.2075685 Z" id="Shape" fill="#31444C"></path>
                </g>
            </g>
        </g>
    </g>
</svg>