<?xml version="1.0" encoding="UTF-8" standalone="no"?>
<svg width="30px" height="30px" viewBox="0 0 30 30" version="1.1" xmlns="http://www.w3.org/2000/svg" xmlns:xlink="http://www.w3.org/1999/xlink">
    <!-- Generator: Sketch 41.2 (35397) - http://www.bohemiancoding.com/sketch -->
    <title>instagram</title>
    <desc>Created with Sketch.</desc>
    <defs></defs>
    <g id="Symbols" stroke="none" stroke-width="1" fill="none" fill-rule="evenodd">
        <g id="sections/footer" transform="translate(-1128.000000, -24.000000)">
            <g id="footer">
                <g id="instagram" transform="translate(1128.000000, 24.000000)">
                    <rect id="Rectangle" x="0" y="0" width="30" height="30"></rect>
                    <circle id="Oval" fill="#FFFDF5" cx="15" cy="15" r="15"></circle>
                    <path d="M19.182791,8.18181818 L10.817209,8.18181818 C9.36441675,8.18181818 8.18181818,9.36361498 8.18181818,10.817209 L8.18181818,19.182791 C8.18181818,20.636385 9.36441675,21.8181818 10.817209,21.8181818 L19.182791,21.8181818 C20.6355833,21.8181818 21.8181818,20.636385 21.8181818,19.182791 L21.8181818,10.817209 C21.8181818,9.36361498 20.6355833,8.18181818 19.182791,8.18181818 L19.182791,8.18181818 Z M19.9388523,9.75407295 L20.2403147,9.75246943 L20.2403147,12.0639485 L17.9360515,12.0711644 L17.9280339,9.75968528 L19.9388523,9.75407295 L19.9388523,9.75407295 Z M13.0541243,13.600124 C13.4902826,12.9955957 14.19904,12.5995254 15,12.5995254 C15.80096,12.5995254 16.5097174,12.9955957 16.9458757,13.600124 C17.2305012,13.9945908 17.4004746,14.4772513 17.4004746,15 C17.4004746,16.3229069 16.3237086,17.3996729 15,17.3996729 C13.6770931,17.3996729 12.6003271,16.3229069 12.6003271,15 C12.6003271,14.4772513 12.7703006,13.9945908 13.0541243,13.600124 L13.0541243,13.600124 Z M20.4896626,19.182791 C20.4896626,19.9035748 19.9035748,20.4896626 19.182791,20.4896626 L10.817209,20.4896626 C10.0964252,20.4896626 9.51033738,19.9035748 9.51033738,19.182791 L9.51033738,13.600124 L11.5468122,13.600124 C11.3704246,14.0330753 11.2718079,14.505313 11.2718079,15 C11.2718079,17.0557171 12.9442829,18.7289938 15,18.7289938 C17.0565189,18.7289938 18.7289938,17.0557171 18.7289938,15 C18.7289938,14.505313 18.6287736,14.0330753 18.4539896,13.600124 L20.4896626,13.600124 L20.4896626,19.182791 L20.4896626,19.182791 Z" id="Shape" fill="#31444C"></path>
                </g>
            </g>
        </g>
    </g>
</svg>