<?xml version="1.0" encoding="UTF-8" standalone="no"?>
<svg width="30px" height="30px" viewBox="0 0 30 30" version="1.1" xmlns="http://www.w3.org/2000/svg" xmlns:xlink="http://www.w3.org/1999/xlink">
    <!-- Generator: Sketch 41.2 (35397) - http://www.bohemiancoding.com/sketch -->
    <title>linkedin</title>
    <desc>Created with Sketch.</desc>
    <defs></defs>
    <g id="Symbols" stroke="none" stroke-width="1" fill="none" fill-rule="evenodd">
        <g id="sections/footer" transform="translate(-1183.000000, -24.000000)">
            <g id="footer">
                <g id="linkedin" transform="translate(1183.000000, 24.000000)">
                    <rect id="Rectangle" x="0" y="0" width="30" height="30"></rect>
                    <circle id="Oval" fill="#FFFDF5" cx="15" cy="15" r="15"></circle>
                    <path d="M8.52577397,12.5543953 L11.1836141,12.5543953 L11.1836141,21.8173087 L8.52577397,21.8173087 L8.52577397,12.5543953 Z M9.78694518,11.3957671 L9.7677029,11.3957671 C8.80558881,11.3957671 8.18181818,10.6876681 8.18181818,9.79097545 C8.18181818,8.87594733 8.82402933,8.18181818 9.8053857,8.18181818 C10.7859403,8.18181818 11.3888651,8.8742011 11.4081074,9.78835609 C11.4081074,10.6850487 10.7859403,11.3957671 9.78694518,11.3957671 L9.78694518,11.3957671 Z M21.8181818,21.8181818 L18.8043594,21.8181818 L18.8043594,17.0238885 C18.8043594,15.7692173 18.3329235,14.9135613 17.2962456,14.9135613 C16.5033033,14.9135613 16.0623343,15.4906926 15.8570833,16.0486152 C15.7801142,16.2476862 15.7921406,16.526211 15.7921406,16.8056089 L15.7921406,21.8181818 L12.8063799,21.8181818 C12.8063799,21.8181818 12.8448644,13.326232 12.8063799,12.5543953 L15.7921406,12.5543953 L15.7921406,14.0081375 C15.9685282,13.3725072 16.9226246,12.4653372 18.4451702,12.4653372 C20.3341208,12.4653372 21.8181818,13.798589 21.8181818,16.6667831 L21.8181818,21.8181818 L21.8181818,21.8181818 Z" id="Shape" fill="#31444C"></path>
                </g>
            </g>
        </g>
    </g>
</svg>