<?xml version="1.0" encoding="UTF-8" standalone="no"?>
<svg width="30px" height="30px" viewBox="0 0 30 30" version="1.1" xmlns="http://www.w3.org/2000/svg" xmlns:xlink="http://www.w3.org/1999/xlink">
    <!-- Generator: Sketch 41.2 (35397) - http://www.bohemiancoding.com/sketch -->
    <title>medium</title>
    <desc>Created with Sketch.</desc>
    <defs></defs>
    <g id="Symbols" stroke="none" stroke-width="1" fill="none" fill-rule="evenodd">
        <g id="sections/footer" transform="translate(-1238.000000, -24.000000)">
            <g id="footer">
                <g id="medium" transform="translate(1238.000000, 24.000000)">
                    <rect id="Rectangle" x="0" y="0" width="30" height="30"></rect>
                    <circle id="Oval" fill="#FFFDF5" cx="15" cy="15" r="15"></circle>
                    <path d="M21.8181818,11.152473 L21.2791577,11.152473 C21.0789938,11.152473 20.7952969,11.4447305 20.7952969,11.6318709 L20.7952969,18.4047608 C20.7952969,18.5919012 21.0789938,18.8467307 21.2791577,18.8467307 L21.8181818,18.8467307 L21.8181818,20.4545455 L16.931503,20.4545455 L16.931503,18.8467307 L17.9543878,18.8467307 L17.9543878,11.7266357 L17.9047409,11.7266357 L15.5161707,20.4545455 L13.6674127,20.4545455 L11.3095763,11.7266357 L11.2496848,11.7266357 L11.2496848,18.8467307 L12.2725697,18.8467307 L12.2725697,20.4545455 L8.18181818,20.4545455 L8.18181818,18.8467307 L8.70586937,18.8467307 C8.92179423,18.8467307 9.20470306,18.5919012 9.20470306,18.4047608 L9.20470306,11.6318709 C9.20470306,11.4447305 8.92179423,11.152473 8.70586937,11.152473 L8.18181818,11.152473 L8.18181818,9.54545455 L13.2970306,9.54545455 L14.9771466,15.861244 L15.0228534,15.861244 L16.7179423,9.54545455 L21.8181818,9.54545455 L21.8181818,11.152473" id="Shape" fill="#31444C"></path>
                </g>
            </g>
        </g>
    </g>
</svg>