<?xml version="1.0" encoding="UTF-8" standalone="no"?>
<svg width="30px" height="30px" viewBox="0 0 30 30" version="1.1" xmlns="http://www.w3.org/2000/svg" xmlns:xlink="http://www.w3.org/1999/xlink">
    <!-- Generator: Sketch 41.2 (35397) - http://www.bohemiancoding.com/sketch -->
    <title>reddit</title>
    <desc>Created with Sketch.</desc>
    <defs></defs>
    <g id="Symbols" stroke="none" stroke-width="1" fill="none" fill-rule="evenodd">
        <g id="sections/footer" transform="translate(-1073.000000, -72.000000)">
            <g id="footer">
                <g id="reddit" transform="translate(1073.000000, 72.000000)">
                    <rect id="Rectangle" x="0" y="0" width="30" height="30"></rect>
                    <circle id="Oval" fill="#FFFDF5" cx="15" cy="15" r="15"></circle>
                    <path d="M12.3281554,18.9523884 C12.3150012,18.9550554 12.3013411,18.9582558 12.2886928,18.9630563 C12.1040285,19.0014608 11.9836172,19.1902827 12.0205501,19.3855053 C12.0342102,19.458047 12.0691193,19.5252548 12.1207242,19.5764608 C12.885184,20.3824208 14.023526,20.5099023 14.9336936,20.5131027 C14.9468478,20.5136361 14.9605079,20.5131027 14.9736621,20.5131027 C14.9797332,20.5136361 14.9863103,20.5136361 14.9933933,20.5131027 L15.003006,20.5131027 C15.9182329,20.5131027 17.0631519,20.3904218 17.8357067,19.5764608 C17.9697781,19.437778 17.9723077,19.2100183 17.840766,19.0686686 C17.7674062,18.9891927 17.6636906,18.9502548 17.559469,18.9630563 C17.4830736,18.9763912 17.4137613,19.0163958 17.3616505,19.0766695 C16.8233412,19.6447353 15.874723,19.7903522 15.0323499,19.7951528 L14.9933933,19.7951528 C14.9863103,19.7946194 14.9797332,19.7946194 14.9736621,19.7951528 L14.9240809,19.7951528 C14.0847435,19.7898188 13.1401726,19.6426018 12.604393,19.0766695 C12.5355866,18.992393 12.4333887,18.9465211 12.3281554,18.9523884 L12.3281554,18.9523884 Z M17.6581253,14.6126854 C16.9847328,14.6126854 16.4337753,15.1919525 16.4337753,15.9029683 C16.4337753,16.6134506 16.9847328,17.1932512 17.6581253,17.1932512 C18.3315178,17.1932512 18.8819694,16.6134506 18.8819694,15.9029683 C18.8819694,15.1924859 18.3315178,14.6126854 17.6581253,14.6126854 L17.6581253,14.6126854 Z M12.3084241,14.6126854 C11.6340197,14.6126854 11.0840741,15.1924859 11.0840741,15.9029683 C11.0840741,16.6134506 11.6340197,17.1932512 12.3084241,17.1932512 C12.9818166,17.1932512 13.5322682,16.6134506 13.5322682,15.9029683 C13.5322682,15.1919525 12.9818166,14.6126854 12.3084241,14.6126854 L12.3084241,14.6126854 Z M21.823445,13.082908 C22.5641262,13.082908 23.1555581,13.706447 23.1555581,14.4878709 C23.1555581,14.9407234 22.9536921,15.3429033 22.6425453,15.6016 C22.3536594,14.7545685 21.7920774,13.988613 21.0438073,13.3538728 C21.2613571,13.1826529 21.5269702,13.082908 21.823445,13.082908 L21.823445,13.082908 Z M8.12286723,13.082908 C8.40214045,13.082908 8.65156382,13.1799859 8.86304246,13.3330704 C8.11780793,13.9587429 7.55470811,14.7150972 7.25469177,15.5493273 C6.97187703,15.2916974 6.79075418,14.9167206 6.79075418,14.4878709 C6.79075418,13.706447 7.38319792,13.082908 8.12286723,13.082908 L8.12286723,13.082908 Z M14.9438122,12.0630565 C16.9781557,12.0630565 18.8096215,12.6423236 20.1159321,13.5405611 C21.4222427,14.4398653 22.1786077,15.6304033 22.1786077,16.9228198 C22.1786077,18.2152363 21.4222427,19.4169756 20.1159321,20.3157464 C18.8096215,21.2139839 16.9781557,21.7831165 14.9438122,21.7831165 C12.9089627,21.7831165 11.077497,21.2139839 9.77118637,20.3157464 C8.46538167,19.4169756 7.6887795,18.2152363 7.6887795,16.9228198 C7.6887795,15.6304033 8.46538167,14.4398653 9.77118637,13.5405611 C11.077497,12.6423236 12.9089627,12.0630565 14.9438122,12.0630565 L14.9438122,12.0630565 Z M20.9841076,7.54679961 C21.528488,7.54679961 21.9615638,8.01245359 21.9615638,8.58745358 C21.9615638,9.16192017 21.528488,9.61797304 20.9841076,9.61797304 C20.4382094,9.61797304 20.0071572,9.16192017 20.0071572,8.58745358 C20.0071572,8.01245359 20.4382094,7.54679961 20.9841076,7.54679961 L20.9841076,7.54679961 Z M20.9841076,6.81871521 C20.3021142,6.81871521 19.7086586,7.26303339 19.4546819,7.8903061 L16.3553562,7.12008348 C16.3204471,7.107282 16.2835142,7.09981446 16.2465813,7.09874767 C16.1064388,7.11314934 15.9885571,7.21662801 15.9506124,7.35957791 L14.736381,11.3552411 C12.6934366,11.3920454 10.8417337,11.961178 9.4554862,12.8956863 C9.09981759,12.5628477 8.63537407,12.3644247 8.12286723,12.3644247 C7.01437513,12.3644247 6.10977273,13.3181353 6.10977273,14.4878709 C6.10977273,15.2468922 6.49630306,15.9184367 7.06749776,16.2982141 C7.03511825,16.5014376 7.00779804,16.7126621 7.00779804,16.9222864 C7.00779804,18.5128708 7.9574282,19.9183671 9.39629242,20.9083485 C10.8356626,21.8977965 12.7890574,22.500533 14.9438122,22.4999996 C17.098567,22.4999996 19.0514559,21.8977965 20.490826,20.9083485 C21.9301962,19.9183671 22.8595892,18.5128708 22.8595892,16.9222864 C22.8595892,16.7238634 22.8484587,16.5217066 22.8201266,16.3296844 C23.4272424,15.9605749 23.8370455,15.2751621 23.8370455,14.4878709 C23.8370455,13.3181353 22.932949,12.3644247 21.823445,12.3644247 C21.2993018,12.3644247 20.8292931,12.5799164 20.4710948,12.9266232 C19.1491003,12.0230518 17.3985834,11.4528524 15.4573309,11.3653756 L16.5030877,7.90044061 L19.3261757,8.59758809 C19.331741,9.5555658 20.0739399,10.3353895 20.9841076,10.3353895 C21.8973108,10.3353895 22.6425453,9.55023185 22.6425453,8.58692018 C22.6425453,7.62414191 21.8968048,6.81818182 20.9841076,6.81818182 L20.9841076,6.81871521 Z" id="Shape" fill="#31444C"></path>
                </g>
            </g>
        </g>
    </g>
</svg>