<?xml version="1.0" encoding="UTF-8" standalone="no"?>
<svg width="30px" height="30px" viewBox="0 0 30 30" version="1.1" xmlns="http://www.w3.org/2000/svg" xmlns:xlink="http://www.w3.org/1999/xlink">
    <!-- Generator: Sketch 41.2 (35397) - http://www.bohemiancoding.com/sketch -->
    <title>twitter</title>
    <desc>Created with Sketch.</desc>
    <defs></defs>
    <g id="Symbols" stroke="none" stroke-width="1" fill="none" fill-rule="evenodd">
        <g id="sections/footer" transform="translate(-1073.000000, -25.000000)">
            <g id="footer">
                <g id="twitter" transform="translate(1073.000000, 25.000000)">
                    <rect id="Rectangle" x="0" y="0" width="30" height="30"></rect>
                    <circle id="Oval" fill="#FFFDF5" cx="15" cy="15" r="15"></circle>
                    <path d="M20.8132834,11.4857261 C21.4200644,11.1028128 21.8856553,10.4956469 22.1041637,9.77236616 C21.5360419,10.1278019 20.9082505,10.3848502 20.2384383,10.5240109 C19.7039332,9.9212769 18.9399942,9.54545455 18.0945349,9.54545455 C16.4725304,9.54545455 15.1581184,10.932629 15.1581184,12.6433299 C15.1581184,12.8861962 15.1824905,13.1228579 15.2329155,13.3488832 C12.792345,13.2194726 10.6282716,11.9874135 9.17855256,10.1118472 C8.92558709,10.5709887 8.78103539,11.1028128 8.78103539,11.6700918 C8.78103539,12.7443765 9.29957259,13.6927961 10.0878836,14.2494386 C9.60632474,14.2334839 9.15334006,14.0925505 8.7566633,13.8620934 L8.7566633,13.9002075 C8.7566633,15.4017242 9.76852519,16.6541699 11.1140326,16.9378094 C10.86695,17.010492 10.6081016,17.0468333 10.3391682,17.0468333 C10.1500744,17.0468333 9.96518273,17.0282195 9.78701436,16.9918782 C10.1601594,18.2221646 11.2451376,19.1191746 12.5309754,19.1431066 C11.5249964,19.974525 10.2584882,20.4691214 8.88272583,20.4691214 C8.64572828,20.4691214 8.41125198,20.4558258 8.18181818,20.4265754 C9.48194304,21.3049716 11.0257888,21.8181818 12.6847716,21.8181818 C18.088652,21.8181818 21.0418768,17.0973566 21.0418768,13.0031975 C21.0418768,12.8684687 21.0401959,12.7346263 21.034313,12.6025567 C21.6083177,12.1655746 22.1075253,11.6195685 22.5,10.9982207 C21.9730586,11.2446325 21.4066177,11.4112707 20.8132834,11.4857261 Z" id="Shape" fill="#31444C"></path>
                </g>
            </g>
        </g>
    </g>
</svg>