<?xml version="1.0" encoding="UTF-8" standalone="no"?>
<svg width="30px" height="31px" viewBox="0 0 30 31" version="1.1" xmlns="http://www.w3.org/2000/svg" xmlns:xlink="http://www.w3.org/1999/xlink">
    <!-- Generator: Sketch 41.2 (35397) - http://www.bohemiancoding.com/sketch -->
    <title>youtube</title>
    <desc>Created with Sketch.</desc>
    <defs></defs>
    <g id="Symbols" stroke="none" stroke-width="1" fill="none" fill-rule="evenodd">
        <g id="sections/footer" transform="translate(-1015.000000, -72.000000)">
            <g id="footer">
                <g id="youtube" transform="translate(1015.000000, 72.000000)">
                    <rect id="Rectangle" x="0" y="0" width="30" height="30"></rect>
                    <ellipse id="Oval" fill="#FFFDF5" cx="15" cy="15.3475994" rx="15" ry="15"></ellipse>
                    <path d="M10.8583033,19.1026251 L10.8696314,16.3404194 L11.3858689,16.3350065 L11.901567,16.328511 L11.8956332,15.9030566 L11.88916,15.4770609 L10.3992457,15.4711067 L8.91041015,15.4651525 L8.91041015,15.8971024 L8.91041015,16.328511 L9.41424072,16.3350065 L9.91807128,16.3404194 L9.92400504,19.0798909 C9.92670221,20.5863025 9.93425427,21.8323533 9.94018804,21.8480508 C9.94827954,21.8702437 10.0529296,21.8756566 10.3987062,21.870785 L10.8469752,21.8648308 L10.8583033,19.1026251 Z M19.4520128,18.9083018 C19.4309749,18.8530901 19.4601043,18.2149086 19.4881548,18.1223479 C19.5534262,17.9047491 19.6920606,17.7986561 19.910531,17.7986561 C20.09232,17.7986561 20.2077586,17.8690239 20.285437,18.0270807 C20.3345254,18.1272195 20.3393803,18.1699814 20.3469324,18.5402242 L20.3544845,18.9434856 L19.9094521,18.9434856 C19.526994,18.9434856 19.4633409,18.938614 19.4520128,18.9083018 L19.4520128,18.9083018 Z M20.2827399,21.8843172 C20.7186018,21.7614443 21.020145,21.4626519 21.1339654,21.0409865 C21.1528455,20.9689949 21.1749623,20.7638458 21.1825144,20.5857612 L21.1954607,20.2620694 L20.7757818,20.2620694 L20.3555633,20.2620694 L20.3453141,20.5522012 C20.3334466,20.8818471 20.2994623,20.9949768 20.1797081,21.1005285 C20.0524019,21.2125757 19.8182879,21.220695 19.6661678,21.1178498 C19.4849182,20.9949768 19.4401453,20.7876626 19.4493156,20.1142971 L19.4557888,19.6368788 L20.3248156,19.6314659 L21.1938424,19.6249705 L21.1825144,18.9147972 C21.1684891,18.1223479 21.1523061,18.0021814 21.0196055,17.7207103 C20.7666114,17.1875391 20.0658877,16.9185177 19.4838394,17.1312449 C19.0447408,17.2920082 18.7852734,17.5815986 18.6811628,18.0297872 C18.6444814,18.187844 18.6401659,18.3296622 18.6401659,19.4891065 C18.6401659,20.9110768 18.6450208,20.9689949 18.7895889,21.2602092 C19.0479774,21.7782243 19.6947577,22.0488696 20.2827399,21.8843172 L20.2827399,21.8843172 Z M16.8416958,21.0745466 C16.8950997,21.0382801 16.9301628,20.9879401 16.9576739,20.9094529 C16.9927371,20.8060664 16.9959737,20.6745328 16.9911188,19.4550052 C16.9862639,18.184055 16.9835667,18.1093569 16.9425698,18.0259982 C16.8373803,17.813271 16.5725186,17.7927019 16.3297737,17.9789059 L16.2499376,18.0395304 L16.2499376,19.4891065 L16.2499376,20.9386826 L16.3292343,20.9993072 C16.5088655,21.136795 16.7057586,21.1654834 16.8416958,21.0745466 L16.8416958,21.0745466 Z M17.3676431,21.8929779 C17.4998042,21.8545463 17.6594764,21.6970307 17.731221,21.5362674 C17.8693159,21.2282731 17.8698554,21.220695 17.8698554,19.4891065 C17.8698554,18.0676775 17.8655399,17.8922994 17.8304767,17.7385729 C17.7166564,17.2465398 17.4685171,17.0316474 17.0509958,17.0630423 C16.8174213,17.0814461 16.6334746,17.1745481 16.4128464,17.3883579 C16.3168273,17.4809186 16.2310575,17.5572405 16.2213477,17.5572405 C16.2127167,17.5572405 16.2046252,17.0863177 16.2046252,16.5114672 L16.2046252,15.4656938 L15.7968138,15.4656938 L15.3890023,15.4656938 L15.3890023,18.6706752 L15.3890023,21.8761979 L15.7968138,21.8761979 L16.2046252,21.8761979 L16.2046252,21.6602229 C16.2046252,21.5167809 16.2132562,21.444248 16.2299786,21.444248 C16.2434644,21.444248 16.3351681,21.5200287 16.4338843,21.6131307 C16.751071,21.9124643 17.0256425,21.9947405 17.3676431,21.8929779 L17.3676431,21.8929779 Z M13.0268245,21.8718675 C13.1897333,21.811243 13.3812321,21.6780855 13.5425226,21.5135332 C13.616425,21.4377525 13.6903273,21.3760454 13.7065103,21.3760454 C13.7280876,21.3760454 13.7356397,21.4377525 13.7356397,21.6261216 L13.7356397,21.8761979 L14.1434512,21.8761979 L14.5512626,21.8761979 L14.5512626,19.5004736 L14.5512626,17.1252907 L14.1434512,17.1252907 L13.7356397,17.1252907 L13.7356397,18.9575592 L13.7356397,20.790369 L13.5597845,20.9652059 C13.4206107,21.1043175 13.362352,21.1465382 13.2760426,21.170355 C13.1303957,21.2109518 13.0376132,21.1828047 12.9777361,21.0794182 C12.9324237,21.0025549 12.9313449,20.9668297 12.9248717,19.0631109 L12.9189379,17.1252907 L12.5111264,17.1252907 L12.1043938,17.1252907 L12.1043938,19.1827361 C12.1043938,21.4242203 12.1065516,21.4729364 12.2317001,21.6889113 C12.3687161,21.924914 12.6891394,21.9990708 13.0268245,21.8718675 L13.0268245,21.8718675 Z M13.3731406,23.8540736 C12.8434173,23.8448716 12.2165959,23.8302568 11.9797848,23.8215961 C10.3900753,23.7642193 9.29880202,23.7030535 9.08087103,23.6586677 C8.77015753,23.595878 8.42276258,23.3847747 8.22101458,23.1363223 C7.89843356,22.7384737 7.72581495,22.2556426 7.64220281,21.5124506 C7.44854631,19.7846512 7.45286178,17.7694264 7.65407034,16.1022515 C7.74253738,15.3715093 7.96208667,14.843751 8.33051951,14.4756734 C8.54089844,14.2651114 8.74318588,14.1481926 9.01236302,14.0789074 C9.59602969,13.9289699 14.1628708,13.809886 16.9409515,13.8715931 C18.5457651,13.9073183 20.2795033,13.9820164 20.7401792,14.0345216 C21.3362528,14.1027242 21.7548529,14.4123424 22.0445285,14.9996427 C22.2635384,15.4429596 22.3331253,15.788303 22.4221317,16.8524802 C22.4917186,17.6947283 22.5089805,18.2197802 22.4960341,19.1924793 C22.4814694,20.356254 22.407567,21.3814583 22.2969832,21.9568502 C22.1804657,22.5652608 21.9053548,23.0838171 21.5487895,23.3647469 C21.274218,23.5818044 20.9813058,23.6786954 20.5200904,23.7046774 C20.3830744,23.7127967 20.2099164,23.7236225 20.1349352,23.7295767 C19.8695341,23.7501458 18.4465094,23.8075226 17.6659496,23.8297155 C16.5061684,23.8621929 14.4768208,23.87356 13.3731406,23.8540736 Z M11.9419636,13.2960191 C11.922544,13.264083 11.9257806,11.3939241 11.9452002,11.129233 C11.9705535,10.7898438 11.9133736,10.5224463 11.6706287,9.83933761 C11.5918715,9.61794977 11.4494611,9.18816507 11.3545209,8.88504236 C10.6678225,6.6933569 10.7039645,6.82164276 10.7697753,6.82110147 C11.2223598,6.81731244 11.7806731,6.82001889 11.7871463,6.82651438 C11.7914617,6.8308447 11.9381875,7.36563977 12.1135033,8.01572973 C12.2893585,8.6652784 12.4355449,9.20602766 12.4393209,9.21793605 C12.4425575,9.22876186 12.5455893,8.85039977 12.6680406,8.37677053 C12.9242713,7.38296107 13.0683,6.83463374 13.0736943,6.82976212 C13.0850224,6.81893631 13.2123286,6.81677115 13.6293105,6.81893631 L14.0905258,6.82164276 L14.0802766,6.89579957 C14.0721851,6.95588282 13.7571561,8.01681231 13.4275625,9.09452181 C13.3919599,9.21360573 13.2997168,9.52051747 13.2236567,9.7770892 C13.1475967,10.0331196 13.055893,10.3373249 13.0192116,10.4531611 L12.9528613,10.6642644 L12.9528613,11.980683 C12.9528613,13.2153668 12.9501641,13.2981843 12.9134827,13.3079275 C12.83041,13.3306617 11.9565283,13.3198359 11.9419636,13.2960191 Z M17.9026999,13.3750475 C17.6750591,13.3447352 17.5418191,13.2565049 17.4506549,13.0751726 C17.3362951,12.8478305 17.3362951,12.8489131 17.3362951,10.5836121 L17.3362951,8.46987251 L17.7958921,8.46987251 L18.2549497,8.46987251 L18.2646595,10.4185185 C18.2749088,12.5349646 18.2722116,12.4857071 18.398439,12.5176433 C18.5144171,12.5463317 18.6428022,12.4840833 18.8024744,12.3206135 L18.9556734,12.1641805 L18.9616072,10.3167559 L18.9670015,8.46987251 L19.4260591,8.46337702 L19.8851167,8.45796411 L19.8851167,10.8769916 L19.8851167,13.2965604 L19.8225425,13.3095514 C19.7475613,13.3252488 19.0516925,13.3241662 18.9955915,13.3079275 C18.9616072,13.2987256 18.9562128,13.2673307 18.9562128,13.077879 L18.9562128,12.858115 L18.82567,12.9858596 C18.5257452,13.2786978 18.2020853,13.415103 17.9026999,13.3750475 L17.9026999,13.3750475 Z M15.5896105,12.4510645 C15.747125,12.330898 15.7482039,12.3206135 15.7562954,10.9603504 C15.763308,9.9032099 15.759532,9.72350143 15.7277054,9.57951814 C15.6845508,9.38465354 15.6090301,9.29263415 15.4612255,9.25203736 C15.2702661,9.20115605 15.0954898,9.31049674 15.0339944,9.51997618 C14.9876031,9.68128077 14.9881426,12.0791979 15.0350733,12.2405025 C15.0706759,12.3617516 15.1844962,12.4943678 15.2686478,12.5127717 C15.3781528,12.5360472 15.5124716,12.5100652 15.59015,12.4510645 L15.5896105,12.4510645 Z M15.2298086,13.3739649 C14.8187606,13.3241662 14.4411574,13.081668 14.2593684,12.7503982 C14.0743428,12.4131742 14.057081,12.2367135 14.0678696,10.7514122 C14.0765006,9.60116977 14.0797372,9.52917812 14.1250495,9.3640845 C14.2334756,8.97164885 14.4433151,8.70425132 14.7685933,8.54240544 C15.2152439,8.3210176 15.6969577,8.349706 16.118255,8.62359902 C16.3868927,8.79735329 16.5498016,9.04959469 16.6371897,9.42470905 C16.6754895,9.59034396 16.6792655,9.71754724 16.6792655,10.8791568 C16.6792655,12.2919251 16.6727923,12.37366 16.5282242,12.6794892 C16.3895899,12.9744925 16.0756398,13.234312 15.7482039,13.3257901 C15.6036358,13.3653043 15.3527994,13.3891211 15.2298086,13.3739649 L15.2298086,13.3739649 Z" id="Shape" fill="#31444C"></path>
                </g>
            </g>
        </g>
    </g>
</svg>