<?xml version="1.0" encoding="UTF-8" standalone="no"?>
<svg width="1022px" height="1022px" viewBox="0 0 1022 1022" version="1.1" xmlns="http://www.w3.org/2000/svg" xmlns:xlink="http://www.w3.org/1999/xlink">
    <!-- Generator: Sketch 39.1 (31720) - http://www.bohemiancoding.com/sketch -->
    <title>network</title>
    <desc>Created with Sketch.</desc>
    <defs>
        <path d="M858.055754,420.317695 L618.166685,180.428626 C631.883899,161.707276 639.966667,138.71436 639.966667,113.861732 C639.966667,50.9776338 588.218246,-1.13686838e-13 524.383333,-1.13686838e-13 C460.548421,-1.13686838e-13 408.8,50.9776338 408.8,113.861732 C408.8,176.74583 460.548421,227.723464 524.383333,227.723464 C548.096045,227.723464 570.140949,220.689087 588.485019,208.623078 L823.898094,444.036153 C808.047756,459.954318 796.906203,480.438885 792.694708,503.301669 L229.305292,503.301669 C219.520463,450.18313 172.327077,409.902235 115.583333,409.902235 C51.748421,409.902235 -1.13686838e-12,460.879868 -1.13686838e-12,523.763966 C-1.13686838e-12,586.648064 51.748421,637.625698 115.583333,637.625698 C140.543445,637.625698 163.655664,629.831774 182.548952,616.579647 L430.617269,864.647964 C424.991029,878.047686 421.886509,892.735828 421.886509,908.138268 C421.886509,971.022366 473.63493,1022 537.469842,1022 C601.304754,1022 653.053175,971.022366 653.053175,908.138268 C653.053175,845.25417 601.304754,794.276536 537.469842,794.276536 C504.458371,794.276536 474.679213,807.909582 453.617584,829.772161 L211.363232,587.517808 C220.167737,574.706639 226.393208,560.034986 229.305292,544.226264 L792.694708,544.226264 C802.479537,597.344803 849.672923,637.625698 906.416667,637.625698 C970.251579,637.625698 1022,586.648064 1022,523.763966 C1022,460.879868 970.251579,409.902235 906.416667,409.902235 C889.150494,409.902235 872.768572,413.631775 858.055754,420.317695 Z" id="path-1"></path>
    </defs>
    <g id="logo" stroke="none" stroke-width="1" fill="none" fill-rule="evenodd">
        <g id="1024">
            <g id="network">
                <mask id="mask-2" fill="white">
                    <use xlink:href="#path-1"></use>
                </mask>
                <use id="Combined-Shape" fill="#D8D8D8" xlink:href="#path-1"></use>
                <rect id="Rectangle-11" fill="#050505" mask="url(#mask-2)" x="-152" y="-152" width="1279" height="1483"></rect>
            </g>
        </g>
    </g>
</svg>