<?xml version="1.0" encoding="UTF-8" standalone="no"?>
<svg width="1007px" height="143px" viewBox="0 0 1007 143" version="1.1" xmlns="http://www.w3.org/2000/svg" xmlns:xlink="http://www.w3.org/1999/xlink">
    <!-- Generator: Sketch 39.1 (31720) - http://www.bohemiancoding.com/sketch -->
    <title>main-grayscale</title>
    <desc>Created with Sketch.</desc>
    <defs>
        <path d="M0,136.316147 L0,5.68385346 C0,4.656259 0.353913745,3.77318325 1.06175185,3.03459973 C1.76958996,2.29601621 2.67046131,1.92672999 3.76439293,1.92672999 L50.1919058,1.92672999 C62.3538514,1.92672999 72.7782199,6.21366134 81.465324,14.7876526 C90.152428,23.361644 94.4959149,33.6213785 94.4959149,45.5671642 C94.4959149,57.7698484 90.168515,68.2222541 81.5135854,76.9246947 C72.8586558,85.6271353 62.4825483,89.9782904 50.3849515,89.9782904 L25.6750903,89.9782904 L25.6750903,136.316147 C25.6750903,137.279516 25.2890025,138.146536 24.5168155,138.917232 C23.7446285,139.687928 22.8759311,140.07327 21.9106973,140.07327 L3.76439293,140.07327 C2.67046131,140.07327 1.76958996,139.703984 1.06175185,138.9654 C0.353913745,138.226817 0,137.343741 0,136.316147 L0,136.316147 L0,136.316147 Z M25.6750903,65.8941655 L49.4197226,65.8941655 C54.9537296,65.8941655 59.6028693,63.935343 63.367281,60.0176391 C67.1316928,56.0999352 69.0138704,51.2189347 69.0138704,45.3744912 C69.0138704,39.9153956 67.1316928,35.3555136 63.367281,31.6947083 C59.6028693,28.033903 54.9537296,26.2035278 49.4197226,26.2035278 L25.6750903,26.2035278 L25.6750903,65.8941655 L25.6750903,65.8941655 Z M116.406612,136.316147 L116.406612,5.68385346 C116.406612,4.72048365 116.7927,3.85346383 117.564887,3.08276798 C118.337074,2.31207213 119.205771,1.92672999 120.171005,1.92672999 L138.510355,1.92672999 C139.604287,1.92672999 140.505158,2.29601621 141.212996,3.03459973 C141.920834,3.77318325 142.274748,4.656259 142.274748,5.68385346 L142.274748,57.9945726 L206.752043,57.9945726 L206.752043,5.68385346 C206.752043,4.656259 207.105956,3.77318325 207.813794,3.03459973 C208.521633,2.29601621 209.422504,1.92672999 210.516435,1.92672999 L228.66274,1.92672999 C229.627974,1.92672999 230.496671,2.31207213 231.268858,3.08276798 C232.041045,3.85346383 232.427133,4.72048365 232.427133,5.68385346 L232.427133,136.316147 C232.427133,137.279516 232.041045,138.146536 231.268858,138.917232 C230.496671,139.687928 229.627974,140.07327 228.66274,140.07327 L210.516435,140.07327 C209.422504,140.07327 208.521633,139.703984 207.813794,138.9654 C207.105956,138.226817 206.752043,137.343741 206.752043,136.316147 L206.752043,81.8860244 L142.274748,81.8860244 L142.274748,136.316147 C142.274748,137.343741 141.920834,138.226817 141.212996,138.9654 C140.505158,139.703984 139.604287,140.07327 138.510355,140.07327 L120.171005,140.07327 C119.205771,140.07327 118.337074,139.687928 117.564887,138.917232 C116.7927,138.146536 116.406612,137.279516 116.406612,136.316147 L116.406612,136.316147 L116.406612,136.316147 Z M249.608208,134.967436 L311.093293,2.11940299 C311.801131,0.706460597 312.92722,0 314.471594,0 L316.402052,0 C317.946426,0 319.072515,0.706460597 319.780353,2.11940299 L380.686301,134.967436 C380.943696,135.545457 381.072392,136.123471 381.072392,136.701493 C381.072392,137.407964 380.879348,138.018089 380.493255,138.531886 C379.849766,139.55948 378.788024,140.07327 377.307999,140.07327 L360.126924,140.07327 C358.646899,140.07327 357.504722,139.768207 356.700361,139.158073 C355.896,138.547939 355.139911,137.536416 354.432073,136.123474 L344.68326,114.833107 L285.611248,114.833107 L275.862436,136.123474 C274.832853,138.756684 272.934589,140.07327 270.167585,140.07327 L252.98651,140.07327 C251.506484,140.07327 250.444743,139.55948 249.801254,138.531886 C249.415161,137.953864 249.222117,137.343739 249.222117,136.701493 C249.222117,136.123471 249.350813,135.545457 249.608208,134.967436 L249.608208,134.967436 L249.608208,134.967436 Z M295.263538,92.9647218 L335.030971,92.9647218 L315.243777,49.5169607 L314.66464,49.5169607 L295.263538,92.9647218 L295.263538,92.9647218 Z M390.33859,123.792402 C390.33859,123.021706 390.66033,121.994127 391.303819,120.709634 L398.446513,108.474898 C399.154352,107.190405 400.248267,106.451833 401.728292,106.259159 C403.208317,106.066485 404.36658,106.355491 405.203116,107.126187 C408.613609,109.695173 411.49318,111.71822 413.841915,113.195387 C416.190651,114.672554 419.311527,116.069419 423.204636,117.386024 C427.097746,118.70263 431.039058,119.360923 435.028691,119.360923 C440.112255,119.360923 444.375307,117.883778 447.817975,114.929444 C451.260642,111.97511 452.981949,108.378583 452.981949,104.139756 C452.981949,99.2586821 450.938902,94.9717507 446.852746,91.2788331 C442.766589,87.5859155 436.444403,84.0054447 427.885997,80.5373134 C422.673734,78.4178999 418.072855,76.1861266 414.083222,73.8419267 C410.09359,71.4977269 406.216625,68.6237167 402.452214,65.21981 C398.687802,61.8159034 395.792144,57.8019227 393.765153,53.1777476 C391.738162,48.5535725 390.724682,43.4477891 390.724682,37.8602442 C390.724682,33.3002938 391.593379,28.8528032 393.3308,24.5176391 C395.068221,20.1824749 397.658226,16.1524383 401.100893,12.4274084 C404.54356,8.70237848 409.208787,5.69992094 415.096713,3.41994573 C420.984639,1.13997051 427.692913,0 435.221737,0 C439.919208,0 444.568347,0.513789525 449.169295,1.54138399 C453.770243,2.56897845 457.808077,3.90162003 461.282918,5.53934871 C464.75776,7.17707739 467.524722,8.58999858 469.583888,9.77815468 C471.643053,10.9663108 473.380448,12.1062813 474.796124,13.1981004 C475.761358,13.7761223 476.372663,14.7715895 476.630059,16.1845319 C476.887455,17.5974743 476.662237,18.7856126 475.954399,19.7489824 L468.425613,30.9240163 C467.589077,32.2085094 466.543423,33.107641 465.288619,33.6214383 C464.033815,34.1352355 462.762943,34.0389 461.475964,33.3324288 C461.218569,33.1397548 460.382045,32.6099094 458.966369,31.7428765 C457.550693,30.8758437 456.681995,30.3459982 456.360251,30.1533243 C456.038506,29.9606503 455.234157,29.4789726 453.947178,28.7082768 C452.6602,27.9375809 451.759329,27.4237914 451.244537,27.1668928 C450.729746,26.9099942 449.877136,26.4925402 448.686681,25.9145183 C447.496226,25.3364964 446.579267,24.9350984 445.935778,24.7103121 C445.292289,24.4855258 444.407505,24.1804633 443.281398,23.7951153 C442.155292,23.4097674 441.141812,23.1528726 440.240927,23.0244233 C439.340042,22.895974 438.358736,22.7675266 437.296979,22.6390773 C436.235222,22.510628 435.157394,22.4464043 434.063462,22.4464043 C428.658153,22.4464043 424.411188,23.7790459 421.32244,26.4443691 C418.233692,29.1096922 416.689341,32.4011564 416.689341,36.3188602 C416.689341,40.8788107 418.523257,44.8606795 422.191146,48.2645862 C425.859034,51.6684928 431.779046,55.0402366 439.951359,58.3799186 C443.040107,59.600187 445.823156,60.7883253 448.300589,61.9443691 C450.778022,63.1004128 453.496723,64.4972781 456.456774,66.1350068 C459.416824,67.7727355 462.022916,69.4425514 464.275128,71.1445047 C466.52734,72.8464581 468.763432,74.8534484 470.98347,77.165536 C473.203507,79.4776235 475.037424,81.8860119 476.485275,84.3907734 C477.933125,86.8955349 479.091388,89.7374332 479.960099,92.9165536 C480.828809,96.095674 481.263158,99.4513618 481.263158,102.983718 C481.263158,113.580786 477.048367,122.732662 468.618659,130.43962 C460.18895,138.146579 449.249798,142 435.800874,142 C418.684062,142 404.205772,136.894217 392.365571,126.682497 C391.271639,125.847576 390.62816,125.04478 390.435113,124.274084 C390.370764,124.145635 390.33859,123.985076 390.33859,123.792402 L390.33859,123.792402 Z M505.779973,136.316147 L505.779973,5.68385346 C505.779973,4.656259 506.133887,3.77318325 506.841725,3.03459973 C507.549563,2.29601621 508.450435,1.92672999 509.544366,1.92672999 L590.044461,1.92672999 C591.138393,1.92672999 592.023177,2.29601621 592.698841,3.03459973 C593.374505,3.77318325 593.712331,4.656259 593.712331,5.68385346 L593.712331,21.8683853 C593.712331,22.8959798 593.374505,23.7790556 592.698841,24.5176391 C592.023177,25.2562226 591.138393,25.6255088 590.044461,25.6255088 L531.455064,25.6255088 L531.455064,57.9945726 L580.295649,57.9945726 C581.260883,57.9945726 582.12958,58.3799147 582.901767,59.1506106 C583.673954,59.9213064 584.060042,60.7883263 584.060042,61.7516961 L584.060042,78.1289009 C584.060042,79.2207201 583.690041,80.1198517 582.950029,80.8263229 C582.210016,81.5327941 581.325232,81.8860244 580.295649,81.8860244 L531.455064,81.8860244 L531.455064,116.374491 L590.044461,116.374491 C591.138393,116.374491 592.023177,116.743777 592.698841,117.482361 C593.374505,118.220944 593.712331,119.10402 593.712331,120.131615 L593.712331,136.316147 C593.712331,137.343741 593.374505,138.226817 592.698841,138.9654 C592.023177,139.703984 591.138393,140.07327 590.044461,140.07327 L509.544366,140.07327 C508.450435,140.07327 507.549563,139.703984 506.841725,138.9654 C506.133887,138.226817 505.779973,137.343741 505.779973,136.316147 L505.779973,136.316147 L505.779973,136.316147 Z M609.252518,71.192673 C609.252518,64.7059829 610.089041,58.3799494 611.762113,52.2143826 C613.435185,46.0488158 615.783885,40.3650192 618.808284,35.1628223 C621.832683,29.9606253 625.516604,25.1759603 629.860156,20.8086839 C634.203708,16.4414074 638.981543,12.7324892 644.193806,9.68181818 C649.406068,6.63114712 655.084775,4.25487056 661.230097,2.55291723 C667.375419,0.850963901 673.697605,0 680.196846,0 C693.195328,0 705.14796,3.16301676 716.055102,9.48914518 C726.962243,15.8152736 735.584869,24.4373041 741.923238,35.3554953 C748.261606,46.2736864 751.430743,58.2192929 751.430743,71.192673 C751.430743,84.1660531 748.261606,96.0795477 741.923238,106.933514 C735.584869,117.787481 726.962243,126.345288 716.055102,132.607191 C705.14796,138.869095 693.195328,142 680.196846,142 C670.480159,142 661.230141,140.153569 652.446513,136.460651 C643.662886,132.767734 636.118088,127.774342 629.811894,121.480326 C623.5057,115.18631 618.502647,107.656082 614.802584,98.8894166 C611.102521,90.1227513 609.252518,80.8905958 609.252518,71.192673 L609.252518,71.192673 L609.252518,71.192673 Z M634.927608,71.192673 C634.927608,83.5880312 639.367617,94.217052 648.247767,103.080054 C657.127918,111.943057 667.777505,116.374491 680.196846,116.374491 C688.369159,116.374491 695.94613,114.351445 702.927988,110.305292 C709.909846,106.259139 715.44377,100.768013 719.529926,93.8317503 C723.616082,86.8954877 725.65913,79.3492041 725.65913,71.192673 C725.65913,63.0361419 723.616082,55.4577464 719.529926,48.4572592 C715.44377,41.4567719 709.909846,35.9014226 702.927988,31.7910448 C695.94613,27.6806669 688.369159,25.6255088 680.196846,25.6255088 C672.024533,25.6255088 664.463649,27.6806669 657.513965,31.7910448 C650.564282,35.9014226 645.062532,41.4567719 641.00855,48.4572592 C636.954568,55.4577464 634.927608,63.0361419 634.927608,71.192673 L634.927608,71.192673 L634.927608,71.192673 Z M918.99449,136.316147 L918.99449,5.68385346 C918.99449,4.656259 919.348404,3.77318325 920.056242,3.03459973 C920.76408,2.29601621 921.664951,1.92672999 922.758883,1.92672999 L1003.25898,1.92672999 C1004.35291,1.92672999 1005.23769,2.29601621 1005.91336,3.03459973 C1006.58902,3.77318325 1006.92685,4.656259 1006.92685,5.68385346 L1006.92685,21.8683853 C1006.92685,22.8959798 1006.58902,23.7790556 1005.91336,24.5176391 C1005.23769,25.2562226 1004.35291,25.6255088 1003.25898,25.6255088 L944.66958,25.6255088 L944.66958,57.9945726 L993.510165,57.9945726 C994.475399,57.9945726 995.344096,58.3799147 996.116283,59.1506106 C996.888471,59.9213064 997.274558,60.7883263 997.274558,61.7516961 L997.274558,78.1289009 C997.274558,79.2207201 996.904558,80.1198517 996.164545,80.8263229 C995.424532,81.5327941 994.539748,81.8860244 993.510165,81.8860244 L944.66958,81.8860244 L944.66958,116.374491 L1003.25898,116.374491 C1004.35291,116.374491 1005.23769,116.743777 1005.91336,117.482361 C1006.58902,118.220944 1006.92685,119.10402 1006.92685,120.131615 L1006.92685,136.316147 C1006.92685,137.343741 1006.58902,138.226817 1005.91336,138.9654 C1005.23769,139.703984 1004.35291,140.07327 1003.25898,140.07327 L922.758883,140.07327 C921.664951,140.07327 920.76408,139.703984 920.056242,138.9654 C919.348404,138.226817 918.99449,137.343741 918.99449,136.316147 L918.99449,136.316147 L918.99449,136.316147 Z" id="path-1"></path>
        <path d="M118.381469,57.9890362 L85.2852276,24.8927948 C87.17772,22.3099079 88.2928571,19.1376955 88.2928571,15.7089082 C88.2928571,7.03311777 81.1533979,2.4158453e-13 72.3464286,2.4158453e-13 C63.5394593,2.4158453e-13 56.4,7.03311777 56.4,15.7089082 C56.4,24.3846986 63.5394593,31.4178164 72.3464286,31.4178164 C75.6179476,31.4178164 78.6593677,30.4473203 81.1902032,28.782636 L113.668915,61.261348 C111.482127,63.4574939 109.944985,66.2836427 109.363947,69.4379014 L31.636053,69.4379014 C30.2860912,62.1094142 23.7750664,56.5520695 15.9464286,56.5520695 C7.13945926,56.5520695 -1.56319402e-13,63.5851873 -1.56319402e-13,72.2609778 C-1.56319402e-13,80.9367682 7.13945926,87.969886 15.9464286,87.969886 C19.3900448,87.969886 22.5787169,86.8945989 25.1853251,85.0662722 L59.4100146,119.290962 C58.6337917,121.139651 58.2054772,123.166098 58.2054772,125.291092 C58.2054772,133.966882 65.3449365,141 74.1519058,141 C82.9588751,141 90.0983344,133.966882 90.0983344,125.291092 C90.0983344,116.615301 82.9588751,109.582184 74.1519058,109.582184 C69.5974856,109.582184 65.4890108,111.463064 62.5832479,114.479329 L29.1606807,81.0567622 C30.3753923,79.2892721 31.234288,77.2651007 31.636053,75.0840541 L109.363947,75.0840541 C110.713909,82.4125413 117.224934,87.969886 125.053571,87.969886 C133.860541,87.969886 141,80.9367682 141,72.2609778 C141,63.5851873 133.860541,56.5520695 125.053571,56.5520695 C122.671448,56.5520695 120.41132,57.0666147 118.381469,57.9890362 Z" id="path-3"></path>
    </defs>
    <g id="logo" stroke="none" stroke-width="1" fill="none" fill-rule="evenodd">
        <g id="main-2" transform="translate(-10.000000, -441.000000)">
            <g id="main-grayscale" transform="translate(10.000000, 441.000000)">
                <g id="masked" transform="translate(0.000000, 1.000000)">
                    <mask id="mask-2" fill="white">
                        <use xlink:href="#path-1"></use>
                    </mask>
                    <use id="Mask" fill="#000000" xlink:href="#path-1"></use>
                    <rect id="Rectangle" fill="#7F7F7F" style="mix-blend-mode: lighten;" mask="url(#mask-2)" x="0" y="-13" width="1007" height="168"></rect>
                </g>
                <g id="network" transform="translate(764.000000, 0.000000)">
                    <mask id="mask-4" fill="white">
                        <use xlink:href="#path-3"></use>
                    </mask>
                    <g id="Combined-Shape"></g>
                    <rect id="Rectangle-11" fill="#FFFFFF" mask="url(#mask-4)" x="-21.15" y="-21.15" width="176.25" height="204.45"></rect>
                    <rect id="Rectangle" fill="#7F7F7F" style="mix-blend-mode: darken;" mask="url(#mask-4)" x="-11" y="-12" width="165" height="168"></rect>
                </g>
            </g>
        </g>
    </g>
</svg>