<?xml version="1.0" encoding="utf-8"?>
<!-- Generator: Adobe Illustrator 16.0.0, SVG Export Plug-In . SVG Version: 6.00 Build 0)  -->
<!DOCTYPE svg PUBLIC "-//W3C//DTD SVG 1.1//EN" "http://www.w3.org/Graphics/SVG/1.1/DTD/svg11.dtd">
<svg version="1.1" id="phase_1" xmlns="http://www.w3.org/2000/svg" xmlns:xlink="http://www.w3.org/1999/xlink" x="0px" y="0px"
	 width="960px" height="560px" viewBox="0 0 960 560" enable-background="new 0 0 960 560" xml:space="preserve">
<line fill="none" stroke="#000000" stroke-width="16" stroke-miterlimit="10" x1="34" y1="333" x2="34" y2="256"/>
<line fill="none" stroke="#000000" stroke-width="16" stroke-miterlimit="10" x1="34" y1="264" x2="122" y2="264"/>
<line fill="none" stroke="#000000" stroke-width="16" stroke-miterlimit="10" x1="114" y1="263" x2="114" y2="195"/>
<line fill="none" stroke="#000000" stroke-width="16" stroke-miterlimit="10" x1="111" y1="203" x2="24" y2="203"/>
<g>
	<rect x="152" y="255" fill="none" width="0" height="0.125"/>
	<line fill="none" x1="152" y1="255.021" x2="152" y2="255.021"/>
	<line fill="none" x1="152" y1="255.042" x2="152" y2="255.042"/>
	<line fill="none" x1="152" y1="255.063" x2="152" y2="255.063"/>
	<line fill="none" x1="152" y1="255.083" x2="152" y2="255.083"/>
	<line fill="none" x1="152" y1="255.104" x2="152" y2="255.104"/>
	<line fill="none" x1="152" y1="255" x2="152" y2="255"/>
	<line fill="none" x1="152" y1="255" x2="152" y2="255"/>
	<line fill="none" x1="152" y1="255" x2="152" y2="255"/>
	<line fill="none" x1="152" y1="255" x2="152" y2="255"/>
	<line fill="none" x1="152" y1="255" x2="152" y2="255"/>
</g>
<g>
	<rect x="152" y="255" width="81" height="16"/>
	<line x1="152" y1="266" x2="233" y2="266"/>
	<line x1="152" y1="264" x2="233" y2="264"/>
	<line x1="152" y1="260" x2="233" y2="260"/>
	<line x1="152" y1="258" x2="233" y2="258"/>
	<line x1="219" y1="255" x2="219" y2="271"/>
	<line x1="206" y1="255" x2="206" y2="271"/>
	<line x1="192" y1="255" x2="192" y2="271"/>
	<line x1="179" y1="255" x2="179" y2="271"/>
	<line x1="165" y1="255" x2="165" y2="271"/>
	<line x1="152" y1="269" x2="233" y2="269"/>
</g>
<g>
	<rect x="233" y="195" width="16" height="138"/>
	<line x1="233" y1="310" x2="249" y2="310"/>
	<line x1="233" y1="287" x2="249" y2="287"/>
	<line x1="233" y1="264" x2="249" y2="264"/>
	<line x1="233" y1="241" x2="249" y2="241"/>
	<line x1="233" y1="218" x2="249" y2="218"/>
	<line x1="246" y1="195" x2="246" y2="333"/>
	<line x1="244" y1="195" x2="244" y2="333"/>
	<line x1="241" y1="195" x2="241" y2="333"/>
	<line x1="238" y1="195" x2="238" y2="333"/>
	<line x1="236" y1="195" x2="236" y2="333"/>
</g>
<g>
	<polyline points="152,333 136,333 136,195 152,195 	"/>
	<line x1="136" y1="310" x2="152" y2="310"/>
	<line x1="136" y1="287" x2="152" y2="287"/>
	<line x1="136" y1="264" x2="152" y2="264"/>
	<line x1="136" y1="241" x2="152" y2="241"/>
	<line x1="136" y1="218" x2="152" y2="218"/>
	<line x1="149" y1="195" x2="149" y2="333"/>
	<line x1="147" y1="195" x2="147" y2="333"/>
	<line x1="144" y1="195" x2="144" y2="333"/>
	<line x1="141" y1="195" x2="141" y2="333"/>
	<line x1="139" y1="195" x2="139" y2="333"/>
</g>
<path d="M259.25,333.167C259.417,333.5,313.5,195,313.5,195H337l54.333,138H368l-39.833-109H320l-38.167,109l-23.167,0.168"/>
<g>
	<rect x="398" y="195" width="99" height="16"/>
	<line x1="497" y1="208" x2="398" y2="208"/>
	<line x1="497" y1="206" x2="398" y2="206"/>
	<line x1="497" y1="203" x2="398" y2="203"/>
	<line x1="497" y1="200" x2="398" y2="200"/>
	<line x1="497" y1="198" x2="398" y2="198"/>
	<line x1="414" y1="195" x2="414" y2="211"/>
	<line x1="431" y1="195" x2="431" y2="211"/>
	<line x1="448" y1="195" x2="448" y2="211"/>
	<line x1="464" y1="195" x2="464" y2="211"/>
	<line x1="481" y1="195" x2="481" y2="211"/>
</g>
<g>
	<rect x="398" y="212" fill="none" width="16" height="29"/>
	<line fill="none" x1="414" y1="217" x2="398" y2="217"/>
	<line fill="none" x1="414" y1="222" x2="398" y2="222"/>
	<line fill="none" x1="414" y1="226" x2="398" y2="226"/>
	<line fill="none" x1="414" y1="231" x2="398" y2="231"/>
	<line fill="none" x1="414" y1="236" x2="398" y2="236"/>
	<line fill="none" x1="401" y1="241" x2="401" y2="212"/>
	<line fill="none" x1="403" y1="241" x2="403" y2="212"/>
	<line fill="none" x1="406" y1="241" x2="406" y2="212"/>
	<line fill="none" x1="409" y1="241" x2="409" y2="212"/>
	<line fill="none" x1="411" y1="241" x2="411" y2="212"/>
</g>
<g>
	<rect x="399" y="242" fill="none" width="13" height="13"/>
	<line fill="none" x1="399" y1="253" x2="412" y2="253"/>
	<line fill="none" x1="399" y1="251" x2="412" y2="251"/>
	<line fill="none" x1="399" y1="249" x2="412" y2="249"/>
	<line fill="none" x1="399" y1="246" x2="412" y2="246"/>
	<line fill="none" x1="399" y1="244" x2="412" y2="244"/>
	<line fill="none" x1="410" y1="242" x2="410" y2="255"/>
	<line fill="none" x1="408" y1="242" x2="408" y2="255"/>
	<line fill="none" x1="406" y1="242" x2="406" y2="255"/>
	<line fill="none" x1="403" y1="242" x2="403" y2="255"/>
	<line fill="none" x1="401" y1="242" x2="401" y2="255"/>
</g>
<g>
	<rect x="398" y="210" width="16" height="61"/>
	<line x1="414" y1="220" x2="398" y2="220"/>
	<line x1="414" y1="230" x2="398" y2="230"/>
	<line x1="414" y1="241" x2="398" y2="241"/>
	<line x1="414" y1="251" x2="398" y2="251"/>
	<line x1="414" y1="261" x2="398" y2="261"/>
	<line x1="401" y1="271" x2="401" y2="210"/>
	<line x1="403" y1="271" x2="403" y2="210"/>
	<line x1="406" y1="271" x2="406" y2="210"/>
	<line x1="409" y1="271" x2="409" y2="210"/>
	<line x1="411" y1="271" x2="411" y2="210"/>
</g>
<g>
	<rect x="413" y="255" width="83" height="16"/>
	<line x1="496" y1="268" x2="413" y2="268"/>
	<line x1="496" y1="266" x2="413" y2="266"/>
	<line x1="496" y1="263" x2="413" y2="263"/>
	<line x1="496" y1="260" x2="413" y2="260"/>
	<line x1="496" y1="258" x2="413" y2="258"/>
	<line x1="427" y1="255" x2="427" y2="271"/>
	<line x1="441" y1="255" x2="441" y2="271"/>
	<line x1="454" y1="255" x2="454" y2="271"/>
	<line x1="468" y1="255" x2="468" y2="271"/>
	<line x1="482" y1="255" x2="482" y2="271"/>
</g>
<g>
	<rect x="481" y="271" width="15" height="62"/>
	<line x1="481" y1="323" x2="496" y2="323"/>
	<line x1="481" y1="312" x2="496" y2="312"/>
	<line x1="481" y1="302" x2="496" y2="302"/>
	<line x1="481" y1="292" x2="496" y2="292"/>
	<line x1="481" y1="281" x2="496" y2="281"/>
	<line x1="493" y1="271" x2="493" y2="333"/>
	<line x1="491" y1="271" x2="491" y2="333"/>
	<line x1="488" y1="271" x2="488" y2="333"/>
	<line x1="486" y1="271" x2="486" y2="333"/>
	<line x1="483" y1="271" x2="483" y2="333"/>
</g>
<g>
	<rect x="398" y="316" width="84" height="17"/>
	<line x1="482" y1="319" x2="398" y2="319"/>
	<line x1="482" y1="322" x2="398" y2="322"/>
	<line x1="482" y1="325" x2="398" y2="325"/>
	<line x1="482" y1="327" x2="398" y2="327"/>
	<line x1="482" y1="330" x2="398" y2="330"/>
	<line x1="412" y1="333" x2="412" y2="316"/>
	<line x1="426" y1="333" x2="426" y2="316"/>
	<line x1="440" y1="333" x2="440" y2="316"/>
	<line x1="454" y1="333" x2="454" y2="316"/>
	<line x1="468" y1="333" x2="468" y2="316"/>
</g>
<path d="M516,194v16h64l23.634-14.005c-0.726-0.693-1.472-1.365-2.254-1.995H516z"/>
<g>
	<rect x="516" y="254" width="47" height="16"/>
	<line x1="516" y1="267" x2="563" y2="267"/>
	<line x1="516" y1="265" x2="563" y2="265"/>
	<line x1="516" y1="262" x2="563" y2="262"/>
	<line x1="516" y1="259" x2="563" y2="259"/>
	<line x1="516" y1="257" x2="563" y2="257"/>
	<line x1="555" y1="254" x2="555" y2="270"/>
	<line x1="547" y1="254" x2="547" y2="270"/>
	<line x1="540" y1="254" x2="540" y2="270"/>
	<line x1="532" y1="254" x2="532" y2="270"/>
	<line x1="524" y1="254" x2="524" y2="270"/>
</g>
<g>
	<polygon points="516,314 585.5,314 611,332 516,332 	"/>
	<line fill="none" x1="516" y1="329" x2="611" y2="329"/>
	<line fill="none" x1="516" y1="326" x2="611" y2="326"/>
	<line fill="none" x1="516" y1="323" x2="611" y2="323"/>
	<line fill="none" x1="516" y1="320" x2="611" y2="320"/>
	<line fill="none" x1="516" y1="317" x2="611" y2="317"/>
	<line fill="none" x1="596" y1="314" x2="596" y2="332"/>
	<line fill="none" x1="580" y1="314" x2="580" y2="332"/>
	<line fill="none" x1="564" y1="314" x2="564" y2="332"/>
	<line fill="none" x1="548" y1="314" x2="548" y2="332"/>
	<line fill="none" x1="532" y1="314" x2="532" y2="332"/>
</g>
<path fill="none" stroke="#000000" stroke-width="5" stroke-miterlimit="10" d="M616.604,210.104"/>
<path fill="none" stroke="#000000" stroke-width="6" stroke-miterlimit="10" d="M657.134,210.736"/>
<path fill="none" stroke="#000000" stroke-width="6" stroke-miterlimit="10" d="M636.084,206.501"/>
<path fill="none" stroke="#000000" stroke-width="6" stroke-miterlimit="10" d="M616.604,210.104"/>
<path fill="none" stroke="#000000" stroke-width="5" stroke-miterlimit="10" d="M606.9,193.774"/>
<path fill="none" stroke="#000000" stroke-width="6" stroke-miterlimit="10" d="M668.182,195.133"/>
<path fill="none" stroke="#000000" stroke-width="6" stroke-miterlimit="10" d="M608.308,193.173"/>
<path fill="none" stroke="#000000" stroke-width="5" stroke-miterlimit="10" d="M602.444,195.918"/>
<path fill="none" stroke="#000000" stroke-width="5" stroke-miterlimit="10" d="M667.182,196.133"/>
<path fill="none" stroke="#000000" stroke-width="5" stroke-miterlimit="10" d="M660.601,212.754
	c17.52,8.995,28.732,27.949,28.732,48.996c0,29.961-24.288,54.25-54.249,54.25c-29.962,0-54.25-24.288-54.25-54.25
	c0-22.196,13.332-41.279,32.424-49.68l-9.73-16.201c-24.279,11.741-41.026,36.605-41.026,65.381
	c0,40.085,32.497,72.583,72.583,72.583c40.085,0,72.582-32.497,72.582-72.583c0-27.348-16.83-53.007-39.169-65.381"/>
<path fill="none" stroke="#000000" stroke-width="5" stroke-miterlimit="10" d="M659.829,213.46"/>
<path fill="none" stroke="#000000" stroke-width="5" stroke-miterlimit="10" d="M658.998,213.042"/>
<path fill="none" stroke="#000000" stroke-width="5" stroke-miterlimit="10" d="M658.998,213.042"/>
<path fill="none" stroke="#000000" stroke-width="5" stroke-miterlimit="10" d="M656.134,211.736"/>
<path fill="none" stroke="#000000" stroke-width="5" stroke-miterlimit="10" d="M668.266,193.828"/>
<path fill="none" stroke="#000000" stroke-width="5" stroke-miterlimit="10" d="M670.501,194.958"/>
<line fill="none" stroke="#000000" stroke-width="5" stroke-miterlimit="10" x1="669.251" y1="193.417" x2="657.908" y2="214.127"/>
<g>
	<rect x="628.5" y="196.5" fill="none" stroke="#000000" stroke-width="5" stroke-miterlimit="10" width="16" height="64"/>
	<path d="M629,193.391"/>
	<path d="M645,193.391"/>
	<path d="M629,206.127"/>
	<path d="M645,206.127"/>
	<path d="M629,219.843"/>
	<path d="M645,219.843"/>
	<path d="M629,232.579"/>
	<path d="M645,232.579"/>
	<path d="M629,246.294"/>
	<path d="M645,246.294"/>
	<path d="M632,259.031"/>
	<path d="M634,259.031"/>
	<path d="M637,259.031"/>
	<path d="M640,259.031"/>
</g>
<g>
	<path fill="none" stroke="#000000" stroke-width="5" stroke-miterlimit="10" d="M656,211.5"/>
	<path fill="none" stroke="#000000" stroke-width="5" stroke-miterlimit="10" d="M609,211.5"/>
	<path fill="none" stroke="#000000" stroke-width="5" stroke-miterlimit="10" d="M656,211.5"/>
	<path fill="none" stroke="#000000" stroke-width="5" stroke-miterlimit="10" d="M609,211.5"/>
	<path fill="none" stroke="#000000" stroke-width="5" stroke-miterlimit="10" d="M660,211.5"/>
	<path fill="none" stroke="#000000" stroke-width="5" stroke-miterlimit="10" d="M613,211.5"/>
	<path fill="none" stroke="#000000" stroke-width="5" stroke-miterlimit="10" d="M660,211.5"/>
	<path fill="none" stroke="#000000" stroke-width="5" stroke-miterlimit="10" d="M613,211.5"/>
	
		<line fill="none" stroke="#000000" stroke-width="5" stroke-miterlimit="10" x1="652.083" y1="211.736" x2="652.083" y2="211.736"/>
	
		<line fill="none" stroke="#000000" stroke-width="5" stroke-miterlimit="10" x1="644.349" y1="211.736" x2="644.349" y2="211.736"/>
	
		<line fill="none" stroke="#000000" stroke-width="5" stroke-miterlimit="10" x1="636.603" y1="211.736" x2="636.603" y2="211.736"/>
	
		<line fill="none" stroke="#000000" stroke-width="5" stroke-miterlimit="10" x1="628.856" y1="211.736" x2="628.856" y2="211.736"/>
	
		<line fill="none" stroke="#000000" stroke-width="5" stroke-miterlimit="10" x1="621.122" y1="211.736" x2="621.122" y2="211.736"/>
</g>
<rect x="723.5" y="195.5" fill="none" stroke="#000000" stroke-width="5" stroke-miterlimit="10" width="16" height="134"/>
<rect x="814.5" y="195.5" fill="none" stroke="#000000" stroke-width="5" stroke-miterlimit="10" width="16" height="134"/>
<polygon fill="none" stroke="#000000" stroke-width="5" stroke-miterlimit="10" points="755.435,196.5 804.5,309.466 804.5,329.5 
	798,329.5 748.5,217.838 748.5,196.5 "/>
<g>
	<rect x="849.5" y="195.5" fill="none" stroke="#000000" stroke-width="5" stroke-miterlimit="10" width="88" height="16"/>
	<line fill="none" x1="849" y1="210" x2="938" y2="210"/>
	<line fill="none" x1="849" y1="207" x2="938" y2="207"/>
	<line fill="none" x1="849" y1="204" x2="938" y2="204"/>
	<line fill="none" x1="849" y1="201" x2="938" y2="201"/>
	<line fill="none" x1="849" y1="199" x2="938" y2="199"/>
	<line fill="none" x1="922" y1="196" x2="922" y2="212"/>
	<line fill="none" x1="908" y1="196" x2="908" y2="212"/>
	<line fill="none" x1="893" y1="196" x2="893" y2="212"/>
	<line fill="none" x1="878" y1="196" x2="878" y2="212"/>
	<line fill="none" x1="863" y1="196" x2="863" y2="212"/>
</g>
<rect x="849.5" y="254.5" fill="none" stroke="#000000" stroke-width="5" stroke-miterlimit="10" width="88" height="16"/>
<rect x="848.5" y="313.5" fill="none" stroke="#000000" stroke-width="5" stroke-miterlimit="10" width="88" height="16"/>
</svg>
